<mxfile host="app.diagrams.net" modified="2021-08-13T03:45:46.292Z" agent="5.0 (Macintosh; Intel Mac OS X 10_15_7) AppleWebKit/537.36 (KHTML, like Gecko) Chrome/92.0.4515.107 Safari/537.36 Edg/92.0.902.62" etag="Q8ADHZLHqWD-Wxr5t4yx" version="14.9.4" type="github">
  <diagram id="iRVF-Cg5l6vkEC1fyYyw" name="第 1 页">
    <mxGraphModel dx="722" dy="381" grid="0" gridSize="10" guides="1" tooltips="1" connect="1" arrows="1" fold="1" page="1" pageScale="1" pageWidth="827" pageHeight="1169" math="1" shadow="0">
      <root>
        <mxCell id="0" />
        <mxCell id="1" parent="0" />
        <mxCell id="Tfpsd4LRDeqY7lcAKwd1-1" value="" style="shape=table;html=1;whiteSpace=wrap;startSize=0;container=1;collapsible=0;childLayout=tableLayout;perimeterSpacing=4;swimlaneFillColor=none;fillColor=#FFFFFF;" vertex="1" parent="1">
          <mxGeometry x="209" y="293" width="341" height="19" as="geometry" />
        </mxCell>
        <mxCell id="Tfpsd4LRDeqY7lcAKwd1-2" value="" style="shape=partialRectangle;html=1;whiteSpace=wrap;collapsible=0;dropTarget=0;pointerEvents=0;fillColor=none;top=0;left=0;bottom=0;right=0;points=[[0,0.5],[1,0.5]];portConstraint=eastwest;" vertex="1" parent="Tfpsd4LRDeqY7lcAKwd1-1">
          <mxGeometry width="341" height="19" as="geometry" />
        </mxCell>
        <mxCell id="Tfpsd4LRDeqY7lcAKwd1-3" value="1" style="shape=partialRectangle;html=1;whiteSpace=wrap;connectable=0;fillColor=#dae8fc;top=0;left=0;bottom=0;right=0;overflow=hidden;pointerEvents=1;strokeColor=none;" vertex="1" parent="Tfpsd4LRDeqY7lcAKwd1-2">
          <mxGeometry width="19" height="19" as="geometry" />
        </mxCell>
        <mxCell id="Tfpsd4LRDeqY7lcAKwd1-4" value="" style="shape=partialRectangle;html=1;whiteSpace=wrap;connectable=0;fillColor=#dae8fc;top=0;left=0;bottom=0;right=0;overflow=hidden;pointerEvents=1;perimeterSpacing=1;strokeWidth=8;strokeColor=none;" vertex="1" parent="Tfpsd4LRDeqY7lcAKwd1-2">
          <mxGeometry x="19" width="17" height="19" as="geometry" />
        </mxCell>
        <mxCell id="Tfpsd4LRDeqY7lcAKwd1-5" value="" style="shape=partialRectangle;html=1;whiteSpace=wrap;connectable=0;fillColor=#dae8fc;top=0;left=1;bottom=0;right=0;overflow=hidden;pointerEvents=1;perimeterSpacing=1;strokeWidth=1;strokeColor=none;" vertex="1" parent="Tfpsd4LRDeqY7lcAKwd1-2">
          <mxGeometry x="36" width="20" height="19" as="geometry" />
        </mxCell>
        <mxCell id="Tfpsd4LRDeqY7lcAKwd1-14" style="shape=partialRectangle;html=1;whiteSpace=wrap;connectable=0;fillColor=#d5e8d4;top=0;left=0;bottom=0;right=0;overflow=hidden;pointerEvents=1;strokeColor=none;" vertex="1" parent="Tfpsd4LRDeqY7lcAKwd1-2">
          <mxGeometry x="56" width="19" height="19" as="geometry" />
        </mxCell>
        <mxCell id="Tfpsd4LRDeqY7lcAKwd1-15" style="shape=partialRectangle;html=1;whiteSpace=wrap;connectable=0;fillColor=#d5e8d4;top=0;left=0;bottom=0;right=0;overflow=hidden;pointerEvents=1;strokeColor=none;" vertex="1" parent="Tfpsd4LRDeqY7lcAKwd1-2">
          <mxGeometry x="75" width="19" height="19" as="geometry" />
        </mxCell>
        <mxCell id="Tfpsd4LRDeqY7lcAKwd1-16" style="shape=partialRectangle;html=1;whiteSpace=wrap;connectable=0;fillColor=#d5e8d4;top=0;left=0;bottom=0;right=0;overflow=hidden;pointerEvents=1;strokeColor=none;" vertex="1" parent="Tfpsd4LRDeqY7lcAKwd1-2">
          <mxGeometry x="94" width="18" height="19" as="geometry" />
        </mxCell>
        <mxCell id="Tfpsd4LRDeqY7lcAKwd1-17" style="shape=partialRectangle;html=1;whiteSpace=wrap;connectable=0;fillColor=#f5f5f5;top=0;left=0;bottom=0;right=0;overflow=hidden;pointerEvents=1;fontColor=#333333;strokeColor=none;" vertex="1" parent="Tfpsd4LRDeqY7lcAKwd1-2">
          <mxGeometry x="112" width="20" height="19" as="geometry" />
        </mxCell>
        <mxCell id="Tfpsd4LRDeqY7lcAKwd1-18" style="shape=partialRectangle;html=1;whiteSpace=wrap;connectable=0;fillColor=#f5f5f5;top=0;left=0;bottom=0;right=0;overflow=hidden;pointerEvents=1;fontColor=#333333;strokeColor=none;" vertex="1" parent="Tfpsd4LRDeqY7lcAKwd1-2">
          <mxGeometry x="132" width="19" height="19" as="geometry" />
        </mxCell>
        <mxCell id="Tfpsd4LRDeqY7lcAKwd1-19" style="shape=partialRectangle;html=1;whiteSpace=wrap;connectable=0;fillColor=#f5f5f5;top=0;left=0;bottom=0;right=0;overflow=hidden;pointerEvents=1;fontColor=#333333;strokeColor=none;" vertex="1" parent="Tfpsd4LRDeqY7lcAKwd1-2">
          <mxGeometry x="151" width="19" height="19" as="geometry" />
        </mxCell>
        <mxCell id="Tfpsd4LRDeqY7lcAKwd1-20" style="shape=partialRectangle;html=1;whiteSpace=wrap;connectable=0;fillColor=#e1d5e7;top=0;left=0;bottom=0;right=0;overflow=hidden;pointerEvents=1;strokeColor=none;" vertex="1" parent="Tfpsd4LRDeqY7lcAKwd1-2">
          <mxGeometry x="170" width="18" height="19" as="geometry" />
        </mxCell>
        <mxCell id="Tfpsd4LRDeqY7lcAKwd1-21" style="shape=partialRectangle;html=1;whiteSpace=wrap;connectable=0;top=0;left=0;bottom=0;right=0;overflow=hidden;pointerEvents=1;fillColor=#e1d5e7;strokeColor=#9673a6;" vertex="1" parent="Tfpsd4LRDeqY7lcAKwd1-2">
          <mxGeometry x="188" width="20" height="19" as="geometry" />
        </mxCell>
        <mxCell id="Tfpsd4LRDeqY7lcAKwd1-22" style="shape=partialRectangle;html=1;whiteSpace=wrap;connectable=0;top=0;left=0;bottom=0;right=0;overflow=hidden;pointerEvents=1;fillColor=#e1d5e7;strokeColor=#9673a6;" vertex="1" parent="Tfpsd4LRDeqY7lcAKwd1-2">
          <mxGeometry x="208" width="19" height="19" as="geometry" />
        </mxCell>
        <mxCell id="Tfpsd4LRDeqY7lcAKwd1-23" style="shape=partialRectangle;html=1;whiteSpace=wrap;connectable=0;fillColor=#f8cecc;top=0;left=0;bottom=0;right=0;overflow=hidden;pointerEvents=1;strokeColor=none;" vertex="1" parent="Tfpsd4LRDeqY7lcAKwd1-2">
          <mxGeometry x="227" width="19" height="19" as="geometry" />
        </mxCell>
        <mxCell id="Tfpsd4LRDeqY7lcAKwd1-24" style="shape=partialRectangle;html=1;whiteSpace=wrap;connectable=0;fillColor=#f8cecc;top=0;left=0;bottom=0;right=0;overflow=hidden;pointerEvents=1;strokeColor=none;" vertex="1" parent="Tfpsd4LRDeqY7lcAKwd1-2">
          <mxGeometry x="246" width="18" height="19" as="geometry" />
        </mxCell>
        <mxCell id="Tfpsd4LRDeqY7lcAKwd1-25" style="shape=partialRectangle;html=1;whiteSpace=wrap;connectable=0;fillColor=#f8cecc;top=0;left=0;bottom=0;right=0;overflow=hidden;pointerEvents=1;" vertex="1" parent="Tfpsd4LRDeqY7lcAKwd1-2">
          <mxGeometry x="264" width="20" height="19" as="geometry" />
        </mxCell>
        <mxCell id="Tfpsd4LRDeqY7lcAKwd1-26" style="shape=partialRectangle;html=1;whiteSpace=wrap;connectable=0;fillColor=#fff2cc;top=0;left=0;bottom=0;right=0;overflow=hidden;pointerEvents=1;strokeColor=none;" vertex="1" parent="Tfpsd4LRDeqY7lcAKwd1-2">
          <mxGeometry x="284" width="19" height="19" as="geometry" />
        </mxCell>
        <mxCell id="Tfpsd4LRDeqY7lcAKwd1-27" style="shape=partialRectangle;html=1;whiteSpace=wrap;connectable=0;fillColor=#fff2cc;top=0;left=0;bottom=0;right=0;overflow=hidden;pointerEvents=1;strokeColor=none;" vertex="1" parent="Tfpsd4LRDeqY7lcAKwd1-2">
          <mxGeometry x="303" width="19" height="19" as="geometry" />
        </mxCell>
        <mxCell id="Tfpsd4LRDeqY7lcAKwd1-28" value="i" style="shape=partialRectangle;html=1;whiteSpace=wrap;connectable=0;fillColor=#fff2cc;top=0;left=0;bottom=0;right=0;overflow=hidden;pointerEvents=1;" vertex="1" parent="Tfpsd4LRDeqY7lcAKwd1-2">
          <mxGeometry x="322" width="19" height="19" as="geometry" />
        </mxCell>
        <mxCell id="Tfpsd4LRDeqY7lcAKwd1-29" value="" style="shape=curlyBracket;whiteSpace=wrap;html=1;rounded=1;flipH=1;rotation=90;" vertex="1" parent="1">
          <mxGeometry x="396" y="186" width="23" height="283" as="geometry" />
        </mxCell>
        <mxCell id="Tfpsd4LRDeqY7lcAKwd1-30" value="" style="shape=curlyBracket;whiteSpace=wrap;html=1;rounded=1;flipH=1;rotation=-90;" vertex="1" parent="1">
          <mxGeometry x="339" y="135" width="23" height="283" as="geometry" />
        </mxCell>
        <mxCell id="Tfpsd4LRDeqY7lcAKwd1-32" value="&lt;font style=&quot;font-size: 11px&quot;&gt;next[i]&lt;/font&gt;" style="text;html=1;strokeColor=none;fillColor=none;align=center;verticalAlign=middle;whiteSpace=wrap;rounded=0;" vertex="1" parent="1">
          <mxGeometry x="493" y="251" width="40" height="20" as="geometry" />
        </mxCell>
        <mxCell id="Tfpsd4LRDeqY7lcAKwd1-33" value="" style="endArrow=classic;html=1;exitX=0.325;exitY=1;exitDx=0;exitDy=0;exitPerimeter=0;endSize=1;" edge="1" parent="1" source="Tfpsd4LRDeqY7lcAKwd1-32">
          <mxGeometry width="50" height="50" relative="1" as="geometry">
            <mxPoint x="516" y="263" as="sourcePoint" />
            <mxPoint x="484" y="301" as="targetPoint" />
          </mxGeometry>
        </mxCell>
        <mxCell id="Tfpsd4LRDeqY7lcAKwd1-34" value="S[1...next[i]]" style="text;html=1;strokeColor=none;fillColor=none;align=center;verticalAlign=middle;whiteSpace=wrap;rounded=0;" vertex="1" parent="1">
          <mxGeometry x="318" y="245" width="72" height="20" as="geometry" />
        </mxCell>
        <mxCell id="Tfpsd4LRDeqY7lcAKwd1-35" value="S[i-next[i]+1,i]" style="text;html=1;strokeColor=none;fillColor=none;align=center;verticalAlign=middle;whiteSpace=wrap;rounded=0;" vertex="1" parent="1">
          <mxGeometry x="353.25" y="343" width="108.5" height="17" as="geometry" />
        </mxCell>
        <mxCell id="Tfpsd4LRDeqY7lcAKwd1-36" value="$$S=bacacabc,&amp;nbsp; i=2, j=4, k=3$$" style="text;html=1;strokeColor=none;fillColor=none;align=center;verticalAlign=middle;whiteSpace=wrap;rounded=0;" vertex="1" parent="1">
          <mxGeometry x="273" y="418" width="230" height="6" as="geometry" />
        </mxCell>
        <mxCell id="Tfpsd4LRDeqY7lcAKwd1-38" value="&lt;font style=&quot;font-size: 13px&quot;&gt;b a c a &lt;font color=&quot;#ff3333&quot;&gt;&lt;b&gt;c&lt;/b&gt;&lt;/font&gt; a b c b a c a c a b c&amp;nbsp;&lt;/font&gt;" style="text;html=1;strokeColor=none;fillColor=none;align=center;verticalAlign=middle;whiteSpace=wrap;rounded=0;" vertex="1" parent="1">
          <mxGeometry x="289" y="443" width="190" height="29" as="geometry" />
        </mxCell>
        <mxCell id="Tfpsd4LRDeqY7lcAKwd1-40" value="&lt;font style=&quot;font-size: 13px&quot;&gt;b a c a c a &lt;b&gt;&lt;font color=&quot;#ff3333&quot;&gt;b&lt;/font&gt;&lt;/b&gt; c b a c a c a b c&amp;nbsp;&lt;/font&gt;" style="text;html=1;strokeColor=none;fillColor=none;align=center;verticalAlign=middle;whiteSpace=wrap;rounded=0;" vertex="1" parent="1">
          <mxGeometry x="289" y="478" width="190" height="29" as="geometry" />
        </mxCell>
        <mxCell id="Tfpsd4LRDeqY7lcAKwd1-41" value="" style="rounded=1;whiteSpace=wrap;html=1;strokeColor=#000000;strokeWidth=1;gradientColor=none;fillColor=none;" vertex="1" parent="1">
          <mxGeometry x="307.5" y="449.5" width="86" height="16" as="geometry" />
        </mxCell>
        <mxCell id="Tfpsd4LRDeqY7lcAKwd1-42" value="" style="rounded=1;whiteSpace=wrap;html=1;strokeColor=#000000;strokeWidth=1;gradientColor=none;fillColor=none;" vertex="1" parent="1">
          <mxGeometry x="328" y="484.5" width="86" height="16" as="geometry" />
        </mxCell>
        <mxCell id="Tfpsd4LRDeqY7lcAKwd1-43" value="i" style="text;html=1;strokeColor=none;fillColor=none;align=center;verticalAlign=middle;whiteSpace=wrap;rounded=0;" vertex="1" parent="1">
          <mxGeometry x="294" y="462.5" width="40" height="20" as="geometry" />
        </mxCell>
        <mxCell id="Tfpsd4LRDeqY7lcAKwd1-44" value="i+k" style="text;html=1;strokeColor=none;fillColor=none;align=center;verticalAlign=middle;whiteSpace=wrap;rounded=0;" vertex="1" parent="1">
          <mxGeometry x="328" y="462.5" width="40" height="20" as="geometry" />
        </mxCell>
        <mxCell id="Tfpsd4LRDeqY7lcAKwd1-45" value="j" style="text;html=1;strokeColor=none;fillColor=none;align=center;verticalAlign=middle;whiteSpace=wrap;rounded=0;" vertex="1" parent="1">
          <mxGeometry x="313.5" y="498.5" width="40" height="20" as="geometry" />
        </mxCell>
        <mxCell id="Tfpsd4LRDeqY7lcAKwd1-46" value="j+k" style="text;html=1;strokeColor=none;fillColor=none;align=center;verticalAlign=middle;whiteSpace=wrap;rounded=0;" vertex="1" parent="1">
          <mxGeometry x="347.5" y="498.5" width="40" height="20" as="geometry" />
        </mxCell>
      </root>
    </mxGraphModel>
  </diagram>
</mxfile>
